<svg version="1.2" xmlns="http://www.w3.org/2000/svg" viewBox="0 0 96 96" width="96" height="96"><style></style><path  d="m70.2 31.2c-2-1.6-5-1.4-6.7 0.7-1.7 2.1-1.3 5.1 0.8 6.8 2.7 2.2 4.4 5.6 4.4 9.3 0 4-1.9 7.5-4.9 9.7-1.9 1.4-2.2 4.2-0.7 6l0.4 0.4c1.6 1.9 4.6 2.3 6.5 0.8 5-3.9 8.2-10.1 8.2-16.9 0-6.8-3.1-12.8-8-16.8z"/><path  d="m81.1 17.8c-2-1.6-4.9-1.2-6.6 0.7-1.6 2-1.4 5 0.6 6.6 6.6 5.5 10.9 13.7 10.9 22.9 0 9.2-4.3 17.5-10.9 22.9-2 1.6-2.2 4.6-0.6 6.6 1.6 2 4.6 2.4 6.6 0.8 8.8-7.1 14.5-18 14.5-30.2-0.1-12.3-5.7-23.2-14.5-30.3z"/><path  d="m42.3 10.5l-24.3 18.7h-11.9c-3.1 0-5.6 2.5-5.6 5.6v26.4c0 3.1 2.5 5.6 5.6 5.6h11.9l24.4 18.7c4.3 3.3 10.4 0.3 10.4-5.2v-64.7c0-5.3-6.2-8.4-10.5-5.1z"/></svg>